<svg width="45" height="45" viewBox="0 0 45 45" fill="none" xmlns="http://www.w3.org/2000/svg">
<path d="M39.1875 3.75H5.8125C5.26549 3.75 4.74089 3.9673 4.35409 4.35409C3.9673 4.74089 3.75 5.26549 3.75 5.8125V39.1875C3.75 39.4584 3.80335 39.7265 3.907 39.9768C4.01065 40.227 4.16257 40.4544 4.35409 40.6459C4.54561 40.8374 4.77298 40.9894 5.02322 41.093C5.27345 41.1967 5.54165 41.25 5.8125 41.25H23.775V26.7188H18.9V21.0938H23.775V16.875C23.674 15.8845 23.7909 14.884 24.1176 13.9435C24.4442 13.003 24.9727 12.1454 25.6659 11.4308C26.3591 10.7161 27.2002 10.1618 28.1303 9.8067C29.0604 9.45157 30.0569 9.30422 31.05 9.375C32.5094 9.36602 33.968 9.44114 35.4187 9.6V14.6625H32.4375C30.075 14.6625 29.625 15.7875 29.625 17.4187V21.0375H35.25L34.5187 26.6625H29.625V41.25H39.1875C39.4584 41.25 39.7265 41.1967 39.9768 41.093C40.227 40.9894 40.4544 40.8374 40.6459 40.6459C40.8374 40.4544 40.9894 40.227 41.093 39.9768C41.1967 39.7265 41.25 39.4584 41.25 39.1875V5.8125C41.25 5.54165 41.1967 5.27345 41.093 5.02322C40.9894 4.77298 40.8374 4.54561 40.6459 4.35409C40.4544 4.16257 40.227 4.01065 39.9768 3.907C39.7265 3.80335 39.4584 3.75 39.1875 3.75V3.75Z" fill="black"/>
</svg>
