<svg width="45" height="45" viewBox="0 0 45 45" fill="none" xmlns="http://www.w3.org/2000/svg">
<path d="M22.5 17.85C21.5803 17.85 20.6813 18.1227 19.9166 18.6337C19.1519 19.1446 18.5559 19.8708 18.204 20.7205C17.852 21.5702 17.7599 22.5052 17.9393 23.4072C18.1188 24.3092 18.5616 25.1377 19.212 25.788C19.8623 26.4384 20.6908 26.8812 21.5928 27.0607C22.4948 27.2401 23.4298 27.148 24.2795 26.796C25.1292 26.4441 25.8554 25.8481 26.3663 25.0834C26.8773 24.3187 27.15 23.4197 27.15 22.5C27.15 21.8894 27.0297 21.2847 26.796 20.7205C26.5624 20.1564 26.2198 19.6437 25.788 19.212C25.3563 18.7802 24.8436 18.4376 24.2795 18.204C23.7153 17.9703 23.1106 17.85 22.5 17.85V17.85ZM41.1188 13.2563C41.1089 11.8083 40.8423 10.3736 40.3313 9.01875C39.9549 8.02736 39.3726 7.12705 38.6228 6.37722C37.8729 5.62739 36.9726 5.0451 35.9813 4.66875C34.6264 4.15774 33.1917 3.89111 31.7438 3.88125C29.325 3.75 28.6125 3.75 22.5 3.75C16.3875 3.75 15.675 3.75 13.2563 3.88125C11.8083 3.89111 10.3736 4.15774 9.01875 4.66875C8.02736 5.0451 7.12705 5.62739 6.37722 6.37722C5.62739 7.12705 5.0451 8.02736 4.66875 9.01875C4.15774 10.3736 3.89111 11.8083 3.88125 13.2563C3.75 15.675 3.75 16.3875 3.75 22.5C3.75 28.6125 3.75 29.325 3.88125 31.7438C3.90143 33.1968 4.1677 34.6359 4.66875 36C5.04343 36.9869 5.62524 37.882 6.375 38.625C7.12161 39.3793 8.02385 39.9616 9.01875 40.3313C10.3736 40.8423 11.8083 41.1089 13.2563 41.1188C15.675 41.25 16.3875 41.25 22.5 41.25C28.6125 41.25 29.325 41.25 31.7438 41.1188C33.1917 41.1089 34.6264 40.8423 35.9813 40.3313C36.9761 39.9616 37.8784 39.3793 38.625 38.625C39.3748 37.882 39.9566 36.9869 40.3313 36C40.8418 34.6385 41.1083 33.1977 41.1188 31.7438C41.25 29.325 41.25 28.6125 41.25 22.5C41.25 16.3875 41.25 15.675 41.1188 13.2563V13.2563ZM36.3562 28.2562C36.2961 29.4133 36.0491 30.553 35.625 31.6313C35.261 32.5307 34.7199 33.3477 34.0338 34.0338C33.3477 34.7199 32.5307 35.261 31.6313 35.625C30.5428 36.0255 29.3968 36.2471 28.2375 36.2813C26.7563 36.2813 26.3625 36.2813 22.5 36.2813C18.6375 36.2813 18.2437 36.2813 16.7625 36.2813C15.6032 36.2471 14.4572 36.0255 13.3688 35.625C12.4389 35.2795 11.5993 34.7282 10.9125 34.0125C10.2331 33.3398 9.70846 32.5273 9.375 31.6313C8.97292 30.544 8.75739 29.3966 8.7375 28.2375C8.7375 26.7563 8.7375 26.3625 8.7375 22.5C8.7375 18.6375 8.7375 18.2437 8.7375 16.7625C8.75739 15.6034 8.97292 14.456 9.375 13.3688C9.72053 12.4389 10.2718 11.5993 10.9875 10.9125C11.6631 10.2368 12.4749 9.71268 13.3688 9.375C14.4572 8.97451 15.6032 8.75289 16.7625 8.71875V8.71875C18.2437 8.71875 18.6375 8.71875 22.5 8.71875C26.3625 8.71875 26.7563 8.71875 28.2375 8.71875C29.3968 8.75289 30.5428 8.97451 31.6313 9.375C32.5611 9.72053 33.4007 10.2718 34.0875 10.9875C34.7669 11.6602 35.2915 12.4727 35.625 13.3688C36.0255 14.4572 36.2471 15.6032 36.2813 16.7625C36.2813 18.2437 36.2813 18.6375 36.2813 22.5C36.2813 26.3625 36.4125 26.7563 36.3562 28.2375V28.2562ZM33.3563 14.3063C33.133 13.7006 32.781 13.1506 32.3246 12.6942C31.8682 12.2377 31.3182 11.8857 30.7125 11.6625C29.8809 11.3742 29.005 11.2346 28.125 11.25C26.6625 11.25 26.25 11.25 22.5 11.25C18.75 11.25 18.3375 11.25 16.875 11.25C15.9905 11.2586 15.1145 11.4237 14.2875 11.7375C13.6911 11.9506 13.1469 12.2882 12.6911 12.7279C12.2353 13.1675 11.8782 13.6992 11.6438 14.2875C11.3715 15.1226 11.2384 15.9967 11.25 16.875C11.25 18.3375 11.25 18.75 11.25 22.5C11.25 26.25 11.25 26.6625 11.25 28.125C11.2686 29.0085 11.4333 29.8828 11.7375 30.7125C11.9607 31.3182 12.3127 31.8682 12.7692 32.3246C13.2256 32.781 13.7756 33.133 14.3813 33.3563C15.1812 33.6505 16.0231 33.815 16.875 33.8437V33.8437C18.3375 33.8437 18.75 33.8437 22.5 33.8437C26.25 33.8437 26.6625 33.8437 28.125 33.8437C29.0095 33.8351 29.8855 33.6701 30.7125 33.3563C31.3182 33.133 31.8682 32.781 32.3246 32.3246C32.781 31.8682 33.133 31.3182 33.3563 30.7125C33.6701 29.8855 33.8351 29.0095 33.8437 28.125C33.8437 26.6625 33.8437 26.25 33.8437 22.5C33.8437 18.75 33.8437 18.3375 33.8437 16.875C33.8443 15.9896 33.6789 15.112 33.3563 14.2875V14.3063ZM22.5 29.6625C21.5603 29.6625 20.6298 29.4771 19.7619 29.1169C18.8939 28.7567 18.1056 28.2289 17.442 27.5635C16.7784 26.8982 16.2525 26.1084 15.8946 25.2396C15.5367 24.3707 15.3538 23.4397 15.3562 22.5V22.5C15.3563 21.0826 15.7768 19.6971 16.5647 18.5188C17.3525 17.3405 18.4723 16.4225 19.7821 15.8809C21.092 15.3394 22.5331 15.1986 23.923 15.4765C25.3129 15.7544 26.5891 16.4384 27.59 17.442C28.591 18.4456 29.2717 19.7236 29.5459 21.1142C29.8201 22.5048 29.6756 23.9455 29.1306 25.254C28.5857 26.5624 27.6647 27.6798 26.4844 28.4645C25.304 29.2493 23.9174 29.6662 22.5 29.6625V29.6625ZM30 16.7438C29.5855 16.6999 29.2019 16.5042 28.9232 16.1943C28.6444 15.8845 28.4901 15.4824 28.4901 15.0656C28.4901 14.6488 28.6444 14.2468 28.9232 13.9369C29.2019 13.6271 29.5855 13.4314 30 13.3875V13.3875C30.4145 13.4314 30.7981 13.6271 31.0768 13.9369C31.3556 14.2468 31.5099 14.6488 31.5099 15.0656C31.5099 15.4824 31.3556 15.8845 31.0768 16.1943C30.7981 16.5042 30.4145 16.6999 30 16.7438Z" fill="black"/>
</svg>
