<svg width="45" height="45" viewBox="0 0 45 45" fill="none" xmlns="http://www.w3.org/2000/svg">
<path d="M22.5 3.74995C20.0614 3.66141 17.63 4.06707 15.3522 4.94254C13.0744 5.818 10.9972 7.14519 9.24555 8.84425C7.49395 10.5433 6.10413 12.5791 5.15971 14.8292C4.21529 17.0793 3.73578 19.4972 3.75003 21.9375C3.7186 24.4709 4.22744 26.982 5.24263 29.3033C6.25783 31.6247 7.75607 33.7031 9.63753 35.4C9.7869 35.533 9.90852 35.6943 9.9954 35.8745C10.0823 36.0546 10.1327 36.2502 10.1438 36.45V39.7875C10.1541 40.0335 10.224 40.2733 10.3476 40.4863C10.4712 40.6993 10.6447 40.879 10.8532 41.01C11.0617 41.1411 11.2989 41.2194 11.5445 41.2383C11.79 41.2573 12.0364 41.2162 12.2625 41.1187L16.0125 39.4875C16.3327 39.3665 16.6861 39.3665 17.0063 39.4875C18.779 39.9659 20.6076 40.2056 22.4438 40.2C27.2774 40.2074 31.9159 38.2944 35.339 34.8819C38.7622 31.4693 40.6894 26.8366 40.6969 22.0031C40.7044 17.1695 38.7914 12.5309 35.3788 9.10782C31.9662 5.6847 27.3336 3.75741 22.5 3.74995V3.74995ZM33.75 17.7375L28.2563 26.475C28.0491 26.8039 27.7759 27.0863 27.4541 27.3044C27.1322 27.5225 26.7687 27.6715 26.3863 27.7419C26.004 27.8124 25.6112 27.8029 25.2327 27.7139C24.8543 27.6249 24.4984 27.4584 24.1875 27.225L19.8 23.9437C19.6053 23.7977 19.3684 23.7187 19.125 23.7187C18.8816 23.7187 18.6448 23.7977 18.45 23.9437L12.525 28.4437C12.36 28.571 12.1552 28.6356 11.9471 28.6262C11.7389 28.6168 11.5408 28.5339 11.3879 28.3923C11.2351 28.2507 11.1373 28.0595 11.1121 27.8526C11.0868 27.6458 11.1357 27.4367 11.25 27.2625L16.7438 18.525C16.951 18.196 17.2241 17.9136 17.546 17.6955C17.8678 17.4774 18.2314 17.3284 18.6137 17.258C18.9961 17.1875 19.3889 17.197 19.7673 17.286C20.1458 17.375 20.5017 17.5415 20.8125 17.775L25.2 21.0562C25.3948 21.2023 25.6316 21.2812 25.875 21.2812C26.1184 21.2812 26.3553 21.2023 26.55 21.0562L32.475 16.5562C32.64 16.4289 32.8448 16.3643 33.053 16.3737C33.2612 16.3831 33.4593 16.466 33.6121 16.6076C33.765 16.7492 33.8627 16.9404 33.888 17.1473C33.9132 17.3541 33.8643 17.5632 33.75 17.7375Z" fill="black"/>
</svg>
