<?xml version="1.0" standalone="no"?>
<!DOCTYPE svg PUBLIC "-//W3C//DTD SVG 20010904//EN"
 "http://www.w3.org/TR/2001/REC-SVG-20010904/DTD/svg10.dtd">
<svg version="1.0" xmlns="http://www.w3.org/2000/svg"
 width="1280.000000pt" height="1280.000000pt" viewBox="0 0 1280.000000 1280.000000"
 preserveAspectRatio="xMidYMid meet">

<g transform="translate(0.000000,1280.000000) scale(0.100000,-0.100000)"
fill="#000000" stroke="none">
<path d="M5855 11230 c-22 -11 -44 -20 -50 -20 -6 0 -29 -10 -50 -21 -22 -12
-60 -32 -85 -44 -26 -13 -52 -30 -59 -39 -7 -9 -19 -16 -26 -16 -7 0 -39 -14
-71 -32 -54 -29 -67 -32 -144 -32 -75 1 -105 7 -250 54 -291 93 -400 82 -615
-66 -48 -32 -104 -72 -126 -89 -21 -16 -51 -39 -66 -51 -42 -32 -138 -64 -191
-64 -26 0 -99 9 -162 20 -134 23 -312 26 -385 6 -103 -27 -174 -75 -315 -212
-74 -73 -149 -143 -165 -157 -44 -36 -129 -56 -290 -68 -280 -20 -301 -24
-381 -65 -85 -43 -111 -76 -196 -244 -64 -125 -85 -158 -108 -170 -10 -5 -62
-15 -117 -21 -111 -12 -255 -44 -293 -65 -72 -39 -123 -114 -149 -219 -34
-132 -65 -239 -77 -259 -13 -21 -149 -96 -176 -96 -31 0 -151 -70 -197 -113
-24 -23 -52 -61 -63 -85 -26 -58 -34 -172 -18 -283 7 -52 9 -115 5 -147 -7
-55 -9 -58 -126 -178 -65 -68 -119 -128 -119 -133 0 -6 -10 -21 -22 -33 -21
-21 -23 -32 -23 -142 0 -88 3 -120 13 -124 7 -2 24 -25 38 -50 13 -26 37 -65
52 -88 15 -22 37 -56 49 -73 43 -66 39 -160 -13 -298 -20 -54 -24 -81 -24
-182 0 -106 2 -123 24 -164 14 -25 28 -63 32 -84 4 -21 17 -59 30 -85 13 -26
24 -53 24 -61 0 -7 16 -44 35 -83 19 -38 35 -73 35 -78 0 -8 71 -157 159 -336
59 -118 142 -272 163 -302 10 -15 25 -42 34 -60 8 -18 30 -58 49 -88 19 -30
44 -73 56 -95 12 -22 29 -49 38 -60 10 -11 37 -51 60 -90 48 -79 104 -164 141
-217 14 -20 47 -69 74 -110 28 -40 71 -98 96 -128 25 -30 57 -71 70 -90 81
-119 367 -453 542 -631 240 -245 454 -440 612 -559 26 -19 65 -50 87 -67 23
-18 47 -33 54 -33 7 0 29 -13 50 -30 21 -16 43 -30 50 -30 7 0 19 -7 26 -17 8
-9 32 -24 55 -34 22 -10 49 -27 59 -39 10 -11 26 -20 35 -20 10 0 32 -10 51
-22 57 -38 309 -158 332 -158 8 0 39 -13 70 -30 31 -16 63 -30 70 -30 8 0 35
-11 62 -25 27 -13 70 -29 97 -35 27 -5 65 -18 86 -28 20 -11 65 -24 99 -31 35
-7 82 -20 105 -31 24 -10 66 -21 93 -25 28 -3 82 -17 120 -30 39 -13 106 -29
150 -35 44 -7 96 -19 115 -27 19 -8 85 -21 147 -29 61 -8 138 -24 170 -35 41
-14 104 -23 217 -29 88 -6 165 -15 171 -20 30 -25 187 -31 686 -28 470 3 517
5 554 21 29 13 84 21 195 28 85 5 191 18 235 29 44 10 118 23 165 30 47 6 114
19 150 30 36 10 107 26 158 34 52 9 106 22 120 30 15 7 58 19 97 25 38 7 90
21 115 31 25 11 75 26 113 35 37 8 77 21 90 29 12 8 38 17 57 21 19 4 63 20
97 36 34 16 68 29 76 29 8 0 34 11 58 23 24 13 62 30 84 37 22 7 51 19 65 27
14 7 45 21 70 31 50 19 270 137 340 182 25 16 62 39 82 50 21 11 57 34 80 51
24 16 66 46 93 65 82 57 119 85 125 92 3 4 59 56 125 114 306 273 685 668 845
882 19 26 61 79 93 118 32 39 63 80 69 91 6 11 34 51 62 88 28 37 67 91 86
118 19 28 46 67 60 85 14 19 39 58 55 86 37 64 80 133 113 182 26 39 49 81 78
138 10 19 27 48 37 63 19 28 54 92 84 152 8 17 21 41 29 55 14 26 87 175 129
265 12 28 37 79 54 115 17 36 31 70 31 76 0 7 14 38 30 69 17 31 30 64 30 72
0 8 11 36 24 62 23 45 38 86 78 206 11 33 30 85 43 115 13 30 27 71 31 90 3
19 17 62 29 95 61 160 78 228 78 325 1 84 -2 101 -27 150 -33 67 -30 62 -90
150 -67 99 -76 135 -59 234 7 44 22 94 34 112 25 42 41 174 29 248 -11 66 -57
139 -114 181 -23 16 -79 51 -126 78 -152 86 -159 99 -171 300 -9 134 -13 155
-38 206 -28 54 -94 126 -139 150 -12 6 -92 29 -179 51 -184 46 -202 58 -232
160 -49 164 -72 210 -140 281 -90 92 -138 109 -307 110 -190 1 -216 7 -276 65
-27 27 -81 91 -120 141 -90 120 -137 166 -225 223 -94 62 -162 76 -343 71
-323 -9 -329 -8 -399 27 -63 31 -104 62 -191 142 -98 91 -187 150 -269 180
-70 26 -96 30 -179 30 -56 0 -120 -6 -148 -14 -66 -20 -297 -66 -328 -66 -42
0 -147 43 -211 86 -78 53 -198 125 -255 152 -103 50 -317 51 -423 3 -23 -11
-56 -23 -72 -26 -17 -4 -48 -18 -70 -30 -22 -13 -79 -31 -126 -40 -121 -24
-153 -17 -354 82 -27 14 -93 40 -145 59 -86 31 -105 34 -205 34 -91 0 -118 -4
-150 -20z m268 -274 c32 -7 65 -20 75 -29 9 -8 34 -20 56 -27 21 -7 54 -23 72
-35 18 -12 50 -26 70 -29 19 -4 54 -17 77 -29 36 -19 58 -22 157 -21 95 0 124
4 165 22 28 11 70 26 95 32 24 7 55 20 68 31 14 10 32 19 41 19 9 0 48 12 86
25 89 32 138 31 211 -1 69 -30 63 -26 152 -86 38 -27 74 -48 78 -48 5 0 22
-11 38 -25 16 -14 34 -25 40 -25 6 0 40 -15 76 -32 64 -32 67 -33 205 -32 134
0 158 4 251 38 60 22 252 32 309 16 25 -7 45 -17 45 -21 0 -5 13 -17 29 -27
16 -10 57 -42 92 -72 34 -30 79 -70 99 -87 21 -18 42 -33 47 -33 6 0 18 -9 29
-21 10 -12 35 -28 56 -36 38 -15 53 -44 38 -73 -5 -9 -44 -34 -86 -54 -43 -21
-90 -46 -105 -57 -15 -10 -32 -19 -39 -19 -19 0 -74 46 -188 157 -59 58 -122
111 -141 120 -18 8 -47 24 -63 36 -27 20 -42 22 -152 22 -105 -1 -127 -4 -163
-22 -23 -12 -93 -32 -155 -44 l-113 -22 -68 22 c-61 19 -115 52 -172 104 -30
27 -85 64 -130 87 -22 11 -51 27 -65 35 -17 10 -57 15 -130 15 -86 0 -111 -4
-137 -19 -17 -11 -54 -27 -82 -35 -29 -8 -58 -22 -67 -30 -8 -9 -34 -21 -57
-27 -23 -6 -59 -20 -81 -31 -26 -13 -51 -18 -75 -15 -40 5 -177 61 -201 81 -8
8 -26 17 -40 21 -13 4 -37 17 -53 29 -15 11 -56 29 -90 39 -34 10 -79 23 -99
30 -33 10 -49 7 -138 -22 -55 -18 -103 -38 -106 -43 -4 -6 -25 -19 -48 -30
-22 -10 -55 -29 -73 -41 -120 -82 -121 -82 -228 -82 -93 1 -104 3 -159 33 -32
18 -65 32 -73 32 -7 0 -40 11 -73 25 -50 21 -75 25 -157 25 -95 0 -100 -1
-160 -38 -34 -20 -108 -74 -165 -119 -155 -125 -154 -124 -210 -133 -71 -11
-219 4 -292 30 -43 15 -85 22 -150 22 -84 1 -96 -2 -156 -32 -67 -33 -169
-129 -216 -202 -27 -43 -51 -58 -91 -58 -28 0 -111 22 -148 39 -46 21 -91 31
-146 31 -103 0 -104 -1 62 165 83 84 168 161 188 172 19 10 42 24 49 31 21 19
139 15 228 -9 63 -16 113 -21 244 -22 l165 -1 55 30 c30 17 64 33 75 37 20 7
37 18 160 107 158 114 185 128 255 137 54 6 199 -21 252 -48 20 -10 69 -23
110 -29 40 -6 84 -15 98 -20 51 -19 115 -17 219 7 58 13 117 32 131 42 14 10
41 23 60 29 19 7 43 21 55 31 11 10 36 24 55 31 19 7 43 20 52 28 45 38 172
51 271 28z m96 -383 c14 -13 40 -28 60 -34 20 -7 39 -18 44 -25 4 -7 28 -20
55 -30 26 -10 60 -27 75 -38 26 -19 43 -21 167 -21 126 0 141 2 168 22 16 12
49 27 73 33 24 7 53 20 64 30 19 18 50 28 157 52 41 9 56 8 108 -12 32 -12 65
-29 71 -37 7 -8 26 -21 43 -30 17 -9 45 -27 61 -40 71 -58 109 -83 123 -83 9
0 33 -12 55 -27 37 -25 46 -27 146 -27 91 1 115 4 154 23 41 20 172 54 263 68
19 3 48 -3 77 -16 25 -12 49 -21 53 -21 4 0 58 -51 121 -114 63 -63 128 -120
143 -126 38 -16 45 -50 21 -103 -10 -23 -24 -62 -31 -85 -9 -35 -15 -42 -28
-37 -9 4 -49 13 -88 20 -39 7 -82 20 -95 29 -14 8 -68 22 -121 30 -53 8 -107
22 -121 31 -15 9 -64 20 -123 26 -53 6 -109 16 -123 23 -37 19 -113 34 -211
42 -47 3 -112 15 -145 25 -40 13 -112 23 -225 29 -91 5 -197 14 -236 20 -154
23 -254 30 -535 35 -331 5 -676 -7 -783 -29 -39 -8 -152 -20 -251 -26 -172
-10 -239 -19 -264 -34 -6 -4 -72 -14 -146 -22 -84 -8 -152 -21 -178 -33 -23
-10 -76 -21 -117 -25 -79 -6 -123 -16 -160 -36 -13 -7 -57 -16 -97 -22 -41 -5
-94 -18 -116 -28 -23 -11 -78 -26 -121 -35 -43 -8 -87 -22 -97 -31 -13 -11
-43 -19 -92 -22 l-72 -4 -43 48 c-24 27 -52 58 -62 69 -11 11 -23 35 -26 53
-6 28 -4 34 14 39 12 3 24 13 27 22 6 20 120 138 147 152 44 23 298 3 345 -28
42 -28 198 -25 255 4 24 12 58 27 76 33 17 7 32 16 32 20 0 5 17 19 38 31 20
13 47 32 59 43 12 12 38 35 58 51 19 17 46 40 59 52 28 27 138 57 180 49 17
-3 58 -10 90 -15 33 -6 68 -19 80 -30 12 -11 49 -24 85 -31 35 -6 74 -18 86
-26 12 -8 48 -17 81 -20 50 -5 68 -2 114 19 30 14 69 28 87 32 17 3 37 13 45
22 7 9 32 24 55 34 24 10 43 23 43 28 0 6 23 20 50 32 28 12 50 26 50 31 0 18
48 28 135 25 78 -2 94 -5 114 -24z m3370 -252 c27 -23 91 -91 142 -151 50 -61
96 -110 100 -110 5 0 9 -6 9 -14 0 -13 47 -58 122 -117 18 -14 51 -31 73 -37
22 -6 65 -18 95 -27 34 -9 96 -15 168 -15 145 0 177 -12 192 -72 5 -24 20 -65
31 -93 12 -27 27 -69 34 -92 19 -59 86 -145 142 -183 26 -18 75 -41 108 -51
33 -9 80 -24 105 -33 25 -8 71 -18 103 -21 54 -6 60 -9 72 -38 7 -18 20 -84
29 -147 33 -234 36 -248 67 -287 56 -74 102 -113 203 -173 138 -82 143 -90
119 -207 -9 -43 -25 -96 -37 -118 -18 -34 -21 -57 -21 -160 0 -106 2 -124 21
-150 12 -16 24 -42 28 -58 3 -15 16 -37 27 -48 11 -11 28 -33 37 -48 9 -15 25
-40 36 -55 10 -14 21 -45 23 -69 l5 -42 -111 -114 c-89 -92 -115 -125 -132
-170 -11 -31 -25 -62 -31 -69 -22 -26 -21 -144 1 -232 30 -120 25 -200 -12
-200 -7 0 -44 -16 -83 -35 -38 -19 -79 -35 -90 -35 -12 0 -32 -8 -45 -19 -13
-10 -39 -26 -58 -35 -32 -17 -63 -45 -122 -114 -15 -16 -30 -47 -33 -68 -4
-21 -16 -54 -26 -74 -10 -19 -23 -72 -29 -118 -11 -84 -35 -134 -71 -146 -8
-3 -71 -10 -139 -15 -86 -7 -134 -16 -160 -29 -20 -10 -52 -24 -72 -31 -60
-20 -145 -116 -195 -221 -72 -153 -90 -183 -113 -192 -57 -21 -176 -38 -344
-47 -176 -10 -179 -11 -255 -47 -115 -55 -167 -97 -308 -245 -106 -110 -126
-124 -193 -139 -51 -11 -85 -10 -209 2 -196 21 -424 18 -472 -6 -67 -33 -115
-61 -170 -99 -97 -67 -125 -88 -133 -103 -4 -8 -14 -14 -21 -14 -6 0 -32 -15
-56 -32 -44 -33 -46 -33 -155 -32 -97 0 -117 3 -165 26 -30 15 -75 29 -100 33
-25 4 -67 16 -95 27 -28 11 -86 22 -130 25 -70 5 -89 2 -145 -20 -36 -14 -84
-31 -107 -37 -23 -6 -45 -15 -48 -21 -4 -5 -32 -21 -63 -35 -31 -14 -63 -31
-72 -38 -8 -7 -32 -19 -52 -26 -21 -6 -38 -15 -38 -19 0 -18 -57 -31 -140 -31
-76 0 -97 4 -137 24 -80 42 -199 96 -209 96 -5 0 -25 9 -45 19 -93 50 -349 54
-424 7 -11 -7 -42 -19 -70 -26 -27 -7 -70 -24 -95 -36 -25 -13 -81 -28 -125
-35 -99 -14 -170 -2 -235 41 -25 17 -49 30 -55 30 -5 1 -26 14 -45 30 -19 17
-39 30 -46 30 -6 0 -23 9 -37 20 -80 63 -238 114 -328 106 -19 -2 -77 -7 -129
-11 -58 -4 -124 -17 -169 -32 -102 -35 -245 -38 -288 -7 -15 11 -41 28 -58 37
-16 8 -55 38 -85 66 -92 86 -103 96 -150 129 -98 71 -137 90 -220 108 -93 21
-162 22 -376 9 -139 -8 -142 -8 -195 18 -56 26 -148 116 -219 214 -19 26 -69
82 -111 124 -125 126 -214 157 -457 158 -61 1 -103 6 -121 16 -27 13 -51 58
-51 93 0 8 -11 38 -24 66 -14 29 -28 65 -31 81 -7 30 -71 134 -90 147 -6 3
-22 18 -37 31 -15 14 -44 31 -65 38 -21 6 -54 20 -73 30 -19 10 -62 21 -95 24
-146 16 -180 43 -190 152 -3 38 -12 104 -20 148 -8 44 -17 97 -21 118 -3 21
-12 43 -18 50 -7 7 -27 34 -45 60 -32 47 -78 83 -150 120 -20 11 -45 27 -56
37 -11 10 -32 23 -47 29 -15 6 -34 25 -43 45 -15 31 -15 43 -5 88 13 56 29
107 54 173 9 25 15 75 16 133 0 87 -2 97 -39 175 -22 46 -47 89 -55 96 -9 8
-16 19 -16 26 0 6 -10 20 -21 31 -28 24 -49 75 -49 114 0 26 12 43 71 98 81
77 167 184 176 221 3 14 13 36 21 49 25 39 27 156 3 253 -12 48 -21 105 -21
128 0 37 3 42 36 56 19 8 47 24 61 35 14 11 35 20 47 20 12 0 59 19 106 41
103 50 194 138 210 203 6 23 20 60 30 82 11 23 25 79 31 125 6 46 15 92 21
102 13 26 74 47 137 47 31 0 81 7 111 15 30 8 84 22 119 31 66 16 85 28 153
100 39 41 65 81 93 142 64 140 76 158 120 195 l39 32 205 0 c146 0 205 -3 208
-12 2 -6 -12 -16 -31 -23 -38 -12 -106 -73 -148 -131 -23 -31 -51 -138 -84
-315 -6 -31 -62 -54 -132 -54 -84 0 -200 -26 -243 -55 -24 -16 -48 -45 -69
-87 -27 -54 -33 -79 -40 -176 -7 -97 -12 -117 -33 -144 -27 -33 -98 -65 -220
-97 -37 -10 -77 -27 -90 -38 -12 -11 -30 -25 -41 -30 -23 -13 -75 -128 -76
-169 0 -18 10 -63 22 -100 13 -45 21 -98 22 -150 l1 -81 -43 -39 c-23 -21 -57
-50 -74 -64 -70 -57 -108 -98 -131 -142 -40 -75 -42 -99 -13 -161 14 -30 26
-58 26 -64 0 -6 12 -24 28 -41 52 -59 79 -97 107 -150 26 -49 28 -56 16 -85
-7 -18 -21 -55 -31 -84 -10 -28 -25 -62 -34 -75 -22 -34 -36 -145 -25 -204 7
-41 17 -57 61 -97 29 -27 76 -59 104 -72 28 -12 54 -27 58 -33 3 -6 20 -14 37
-17 17 -4 46 -22 65 -41 l33 -34 3 -158 3 -157 35 -58 c19 -33 46 -65 60 -72
66 -35 135 -55 221 -65 52 -6 103 -13 115 -15 33 -7 74 -82 89 -160 7 -38 25
-97 40 -130 25 -56 79 -125 97 -125 5 0 22 -10 38 -22 28 -20 36 -21 175 -15
179 7 204 3 247 -37 38 -37 98 -111 98 -122 0 -9 52 -80 103 -141 38 -46 133
-123 152 -123 5 0 38 -5 73 -10 44 -6 113 -4 225 6 89 8 188 11 220 8 60 -7
91 -25 174 -104 18 -16 37 -30 43 -30 5 0 10 -6 10 -12 0 -7 21 -31 47 -53 25
-22 56 -49 67 -61 12 -12 57 -38 100 -59 76 -37 81 -38 158 -32 44 4 94 14
111 22 18 9 63 23 100 31 37 7 82 22 100 31 19 10 56 17 92 17 51 1 68 -4 115
-32 80 -48 147 -95 228 -158 15 -12 63 -36 107 -54 69 -28 89 -31 146 -27 36
2 76 11 90 19 13 9 47 21 76 28 29 6 57 18 63 25 6 8 35 22 63 31 28 9 66 26
84 37 48 28 163 28 201 0 15 -11 45 -26 67 -33 22 -8 49 -21 60 -30 46 -38
172 -89 241 -98 81 -11 204 6 233 32 9 8 34 23 56 33 22 10 51 26 65 36 71 52
135 85 184 97 49 12 68 11 151 -5 54 -10 106 -26 119 -36 13 -10 48 -24 77
-30 29 -6 73 -20 97 -30 56 -24 132 -24 180 0 20 10 49 21 63 24 32 8 121 74
196 145 18 17 37 32 41 32 4 0 22 14 40 30 34 30 118 60 168 60 28 0 53 -4
254 -41 147 -28 169 -27 262 6 94 33 165 97 283 253 25 33 92 94 115 104 14 6
123 14 245 18 204 6 224 8 281 32 56 23 134 86 134 108 0 5 11 25 24 45 13 19
27 54 31 78 4 23 14 53 23 67 9 14 24 39 33 55 26 49 70 64 189 65 58 1 126 5
151 9 59 10 111 52 150 120 26 46 32 70 40 160 6 67 16 118 28 141 23 44 96
88 176 105 33 7 89 28 125 47 53 29 71 45 97 89 29 48 33 62 33 127 0 45 -6
87 -16 110 -25 57 -20 151 11 217 15 30 30 55 34 55 5 0 39 28 76 63 138 129
164 205 104 313 -37 67 -70 115 -109 159 -15 17 -34 48 -42 70 -15 37 -14 46
3 112 10 40 29 92 43 115 31 54 43 163 26 228 -13 51 -70 113 -125 135 -18 8
-36 19 -40 24 -3 5 -29 19 -58 29 -29 11 -70 36 -92 56 l-40 37 -5 167 c-6
160 -7 169 -33 207 -34 51 -33 50 -89 86 -41 27 -62 32 -155 41 -60 5 -123 17
-142 26 -58 28 -91 79 -102 158 -13 94 -65 199 -121 244 -36 30 -52 36 -108
41 -36 3 -103 2 -150 -2 -113 -9 -120 -3 -120 101 0 114 -17 152 -107 237 -42
40 -90 79 -107 87 -17 8 -42 26 -55 40 -14 15 -43 31 -64 37 -40 11 -101 49
-92 57 13 14 92 21 192 18 l112 -3 50 -42z m-2664 -301 c99 -6 227 -19 285
-30 58 -11 157 -24 220 -29 63 -6 149 -19 190 -30 41 -11 113 -25 160 -30 47
-6 112 -20 145 -30 33 -11 94 -25 135 -31 41 -6 84 -17 96 -24 11 -8 58 -21
103 -30 46 -8 94 -22 107 -30 12 -9 42 -18 66 -22 24 -4 54 -17 68 -29 14 -13
41 -26 60 -30 19 -4 56 -20 81 -36 25 -16 50 -29 54 -29 25 0 300 -179 360
-234 22 -20 60 -51 85 -68 55 -40 116 -43 173 -8 51 30 108 24 167 -19 23 -17
48 -31 55 -31 7 0 20 -10 31 -21 10 -12 37 -30 59 -40 22 -11 58 -33 80 -49
36 -27 103 -75 172 -121 13 -9 31 -23 41 -32 9 -9 39 -36 66 -59 123 -107 250
-232 317 -311 79 -93 131 -160 151 -193 10 -16 31 -49 48 -74 34 -52 114 -213
125 -250 4 -14 15 -39 25 -56 9 -16 20 -48 24 -70 4 -21 19 -73 33 -114 24
-68 26 -89 26 -235 1 -270 -9 -406 -31 -456 -11 -24 -23 -63 -27 -87 -9 -57
-53 -107 -100 -115 -59 -10 -164 -69 -200 -113 -38 -46 -50 -87 -59 -194 -8
-96 -21 -137 -56 -180 l-28 -35 -155 -6 -155 -5 -56 -39 c-63 -43 -121 -133
-132 -206 -4 -22 -16 -55 -28 -72 -12 -18 -26 -44 -33 -58 -17 -38 -101 -52
-279 -45 -147 5 -182 1 -280 -34 -65 -23 -113 -63 -214 -180 -74 -85 -144
-156 -172 -174 -44 -29 -251 -20 -338 14 -25 10 -84 21 -132 25 -84 7 -89 6
-155 -25 -76 -37 -193 -109 -193 -120 0 -3 -30 -31 -67 -61 -38 -29 -70 -56
-73 -59 -8 -10 -63 -29 -100 -35 -48 -8 -183 19 -217 44 -15 11 -48 25 -73 31
-25 7 -62 21 -82 31 -52 27 -199 27 -248 0 -19 -10 -46 -22 -60 -26 -22 -7
-83 -44 -150 -92 -13 -10 -38 -24 -55 -31 -16 -7 -40 -23 -53 -35 -20 -19 -35
-22 -107 -22 -62 0 -88 4 -101 16 -11 9 -44 28 -74 43 -59 28 -94 48 -150 82
-88 55 -336 58 -394 6 -12 -11 -43 -27 -70 -36 -27 -9 -57 -23 -66 -31 -9 -8
-50 -23 -91 -31 -61 -14 -84 -14 -131 -5 -52 11 -75 24 -162 93 -31 25 -105
74 -183 123 -47 29 -50 30 -178 29 -113 0 -136 -3 -180 -23 -74 -34 -240 -62
-294 -50 -69 15 -93 32 -210 146 -113 111 -175 163 -196 163 -7 0 -41 9 -75
20 -74 24 -116 25 -190 5 -30 -8 -109 -17 -175 -21 -130 -6 -113 -10 -206 55
-31 21 -68 70 -109 141 -53 92 -141 183 -220 227 l-65 35 -146 -6 c-120 -6
-153 -5 -183 8 -20 8 -36 22 -36 31 0 8 -9 41 -21 73 -12 31 -27 83 -34 115
-26 118 -100 186 -228 211 -202 39 -232 47 -246 61 -12 12 -16 46 -19 153 -2
88 -8 150 -17 175 -38 96 -48 115 -76 131 -16 9 -29 21 -29 26 0 4 -20 16 -45
26 -25 9 -58 32 -74 50 -25 28 -30 45 -37 111 -4 43 -4 150 -1 238 4 126 10
171 25 210 11 28 25 77 32 110 7 33 22 80 35 105 12 25 25 59 29 75 4 17 18
46 30 65 13 19 27 46 31 60 4 14 13 32 20 40 7 8 22 33 34 55 12 22 31 53 44
70 53 70 93 124 112 151 77 108 328 346 474 449 24 17 57 42 74 56 80 64 165
96 182 68 15 -23 183 -71 234 -67 28 2 40 11 59 38 62 94 345 356 433 400 21
11 42 26 46 33 4 7 28 21 53 31 25 10 52 24 61 32 8 8 40 22 70 33 30 10 67
26 84 35 16 8 50 18 75 22 25 3 59 15 76 25 18 11 58 24 90 30 33 5 91 21 129
34 39 13 93 26 122 30 28 3 77 14 108 25 32 11 99 25 149 31 50 6 118 19 152
29 33 10 114 23 180 30 65 6 166 20 225 31 234 44 1039 59 1544 29z m3000
-419 c23 -13 32 -28 38 -62 5 -24 18 -52 28 -62 11 -10 19 -32 19 -50 1 -52
18 -110 36 -124 9 -7 22 -22 28 -34 6 -12 20 -27 31 -33 10 -6 26 -20 35 -30
12 -13 38 -22 85 -27 37 -5 75 -15 84 -24 10 -8 53 -21 97 -28 l79 -13 6 -155
c3 -85 7 -154 7 -155 16 -10 42 -52 42 -69 0 -30 23 -75 38 -75 8 0 27 -13 43
-30 17 -16 48 -34 70 -40 21 -6 39 -15 39 -20 0 -13 54 -40 79 -40 12 0 26
-12 36 -29 8 -16 20 -31 27 -34 10 -3 9 -9 -4 -23 -9 -11 -22 -40 -27 -66 -6
-26 -22 -63 -36 -84 -14 -20 -25 -47 -25 -60 0 -13 -4 -24 -10 -24 -5 0 -10
11 -10 24 0 15 -10 32 -26 43 -18 13 -27 31 -31 61 -3 23 -10 42 -14 42 -18 0
-49 41 -49 63 0 13 -13 36 -30 52 -16 16 -30 35 -30 42 0 7 -11 20 -25 29 -14
9 -25 23 -25 30 0 8 -13 28 -30 46 -16 17 -30 34 -30 38 0 6 -45 59 -91 105
-5 6 -15 16 -22 23 -67 73 -96 101 -115 111 -12 6 -22 18 -22 26 0 8 -13 21
-30 30 -16 9 -30 21 -30 28 0 6 -18 22 -40 35 -22 13 -38 27 -35 31 3 5 -15
17 -40 28 -25 10 -48 26 -51 36 -3 9 -12 17 -19 17 -8 0 -27 11 -42 25 -65 59
-118 97 -144 102 -15 3 -29 13 -32 24 -3 10 -17 23 -32 29 -14 5 -41 21 -58
34 -18 13 -44 26 -58 30 -20 4 -28 13 -31 36 -4 25 4 42 41 90 54 68 75 79
173 90 102 10 100 10 133 -9z m-7145 -214 c0 -11 12 -35 26 -54 29 -38 26 -63
-7 -63 -12 0 -23 -8 -26 -20 -3 -11 -20 -24 -39 -30 -18 -6 -42 -22 -52 -34
-10 -13 -28 -27 -40 -30 -12 -4 -29 -18 -38 -31 -8 -13 -26 -26 -38 -29 -13
-3 -26 -15 -29 -26 -3 -11 -13 -23 -24 -27 -10 -3 -43 -32 -73 -63 -30 -31
-62 -61 -70 -66 -9 -5 -34 -30 -55 -56 -22 -27 -45 -48 -52 -48 -8 0 -16 -13
-19 -30 -5 -21 -12 -30 -26 -30 -12 0 -23 -10 -29 -28 -5 -15 -19 -32 -31 -37
-12 -6 -25 -19 -28 -30 -3 -11 -21 -36 -40 -55 l-34 -36 -34 67 c-29 58 -33
75 -30 131 3 57 5 63 25 66 13 2 29 12 37 23 12 17 88 37 148 39 4 0 13 7 22
15 8 8 36 24 61 35 28 12 49 28 52 40 3 12 18 27 33 35 24 12 28 21 33 81 4
37 13 74 21 83 7 9 21 60 29 115 9 54 19 102 24 107 5 5 60 9 123 10 63 1 124
5 135 9 25 9 45 -6 45 -33z m-892 -1159 c-6 -18 -28 -21 -28 -4 0 9 7 16 16
16 9 0 14 -5 12 -12z m-49 -65 c-5 -27 -11 -64 -15 -83 -5 -33 -7 -34 -20 -15
-10 13 -14 15 -14 4 -1 -34 -30 27 -30 63 0 32 4 39 25 44 14 3 30 15 36 25
17 33 27 12 18 -38z m9061 -309 c0 -8 11 -19 24 -25 26 -12 40 -49 31 -80 -9
-27 -20 -24 -49 14 -19 24 -26 46 -26 76 0 26 4 40 10 36 6 -3 10 -13 10 -21z
m-8400 -2176 c0 -5 7 -8 15 -4 10 4 15 -1 15 -14 0 -11 7 -20 15 -20 9 0 15
-9 16 -22 0 -21 1 -22 8 -3 7 16 9 14 14 -13 4 -19 13 -32 22 -32 8 0 15 -7
15 -15 0 -8 6 -15 14 -15 8 0 19 -13 24 -29 6 -16 20 -32 31 -36 12 -3 21 -14
21 -24 0 -22 19 -41 41 -41 10 0 19 -11 22 -29 4 -21 13 -30 29 -33 13 -2 23
-10 23 -18 0 -8 15 -23 34 -32 19 -10 39 -24 43 -33 5 -8 16 -15 23 -15 8 0
15 -4 15 -10 0 -5 23 -10 51 -10 36 0 63 -7 88 -22 32 -21 48 -23 156 -22 98
0 126 4 148 18 18 12 54 20 111 23 75 5 87 3 111 -15 14 -12 43 -26 63 -33 20
-6 46 -20 57 -31 197 -185 225 -208 251 -208 14 0 25 -8 29 -20 4 -13 24 -25
62 -36 30 -9 64 -25 74 -35 21 -21 65 -25 209 -20 67 2 94 8 125 26 28 16 64
25 120 30 44 4 98 13 120 21 42 16 51 15 170 -18 28 -8 61 -24 75 -37 49 -45
102 -80 131 -86 16 -4 34 -15 39 -25 6 -11 28 -25 50 -31 22 -7 50 -21 62 -33
21 -20 33 -21 214 -21 186 0 193 1 216 22 15 14 47 27 84 34 33 6 69 20 81 31
52 49 322 46 362 -3 9 -11 35 -24 59 -30 23 -5 51 -18 61 -28 10 -10 41 -24
69 -30 27 -5 67 -21 88 -33 35 -21 52 -23 161 -23 110 0 124 2 151 22 17 13
52 27 79 33 26 6 55 19 63 28 8 10 33 24 55 31 22 7 47 22 56 33 8 10 34 24
58 29 24 5 51 20 61 32 17 20 27 22 122 22 95 0 106 -2 140 -26 24 -17 55 -28
90 -32 29 -3 75 -17 102 -31 46 -24 57 -26 190 -26 132 0 144 2 176 24 19 13
50 27 68 31 18 4 47 20 63 36 16 16 36 29 44 29 8 0 20 9 27 19 8 11 30 27 51
37 20 10 39 26 43 36 3 10 12 18 20 18 8 0 27 12 41 26 17 17 53 34 101 47 64
17 82 18 121 9 70 -18 353 -33 474 -26 91 6 113 11 135 29 15 12 42 27 60 35
19 7 40 24 49 37 8 12 21 23 28 23 8 0 23 13 35 29 11 17 29 32 39 36 10 3 21
15 24 26 3 11 14 23 25 26 11 3 26 18 32 33 6 15 20 30 31 33 10 3 23 17 29
31 6 16 17 26 30 26 13 0 24 10 30 25 8 21 17 25 52 27 24 1 57 3 73 4 17 1
99 3 184 4 141 2 156 4 171 22 13 16 30 20 90 23 41 1 92 6 113 9 38 8 47 0
25 -22 -9 -9 -9 -12 3 -12 8 0 1 -12 -18 -31 -25 -23 -33 -39 -33 -65 0 -24
-5 -34 -15 -34 -8 0 -15 -4 -15 -9 0 -5 -3 -18 -6 -28 -3 -11 -2 -14 3 -7 4 6
19 13 31 17 20 5 23 2 19 -14 -3 -12 0 -19 9 -19 8 0 14 -4 14 -10 0 -5 -7
-10 -15 -10 -8 0 -15 -4 -15 -9 0 -4 -11 -6 -25 -3 -14 2 -25 10 -25 17 0 17
-35 25 -72 18 -30 -6 -30 -7 -24 -57 7 -49 5 -53 -28 -85 -34 -33 -34 -33 -48
-12 -22 36 -33 24 -33 -38 0 -62 -10 -86 -25 -62 -12 21 -36 6 -55 -33 -17
-36 -39 -51 -57 -39 -6 3 -8 1 -4 -5 3 -6 2 -13 -3 -17 -6 -3 -7 -27 -4 -54 5
-46 4 -48 -21 -53 -24 -5 -26 -3 -26 31 -1 30 -2 33 -11 18 -6 -9 -14 -15 -20
-12 -5 4 -9 2 -9 -3 0 -6 -12 -13 -27 -17 -22 -6 -25 -9 -11 -14 28 -10 5 -32
-36 -34 -23 -2 -41 -9 -47 -20 -6 -9 -17 -17 -24 -17 -8 0 -15 -4 -15 -10 0
-5 -13 -10 -29 -10 -24 0 -30 -5 -34 -30 -6 -25 -11 -30 -37 -30 -16 0 -30 -4
-30 -10 0 -5 -13 -10 -30 -10 -28 0 -30 -3 -30 -35 0 -33 -2 -35 -34 -35 -19
0 -36 -6 -39 -12 -3 -9 -10 -5 -22 10 -18 25 -35 21 -35 -8 0 -24 -66 -60
-109 -60 -20 0 -34 -7 -41 -20 -6 -11 -17 -20 -25 -20 -8 0 -15 -4 -15 -10 0
-5 -15 -10 -34 -10 -19 0 -38 -4 -41 -10 -3 -5 -15 -10 -26 -10 -11 0 -36 -16
-54 -36 -30 -31 -40 -36 -70 -32 -19 2 -35 0 -35 -4 0 -4 -13 -8 -30 -8 -25 0
-30 -4 -30 -24 0 -31 -3 -32 -72 -41 -50 -6 -58 -5 -58 9 0 9 -4 16 -10 16 -5
0 -10 -6 -10 -13 0 -18 -42 -37 -80 -37 -16 0 -32 -4 -35 -10 -3 -5 -15 -10
-26 -10 -10 0 -19 -6 -19 -12 0 -10 -3 -9 -9 1 -7 11 -13 9 -30 -8 -15 -15
-33 -21 -69 -21 -36 0 -51 -5 -62 -20 -12 -17 -26 -20 -87 -20 -40 0 -73 -4
-73 -9 0 -5 -31 -12 -70 -16 -38 -4 -68 -11 -65 -16 10 -15 -29 -27 -115 -34
-46 -4 -94 -14 -106 -22 -15 -9 -24 -11 -29 -4 -7 13 -65 15 -65 3 0 -4 -13
-15 -29 -25 -21 -12 -63 -19 -141 -24 -94 -5 -112 -9 -121 -25 -12 -21 -89
-27 -89 -5 0 9 -2 9 -8 -1 -14 -21 -564 -35 -1072 -28 -245 3 -461 5 -480 4
-102 -6 -129 -3 -152 20 -29 26 -88 31 -88 6 0 -9 -6 -14 -12 -11 -7 2 -12 10
-10 17 6 25 -23 30 -125 23 -75 -4 -103 -3 -103 6 0 6 -15 11 -35 11 -28 0
-35 4 -35 20 0 22 15 20 -210 25 -80 2 -160 18 -160 33 0 7 -28 11 -77 12 -12
0 -25 5 -28 10 -3 6 -17 10 -31 10 -13 0 -29 9 -36 20 -14 22 -39 27 -36 8 4
-20 -71 -23 -78 -4 -7 18 -41 21 -46 5 -6 -18 -46 11 -59 43 -8 20 -19 28 -35
28 -13 0 -24 -6 -24 -12 0 -10 -2 -10 -8 -1 -11 17 -58 33 -97 33 -21 0 -44 9
-63 25 -23 19 -41 25 -80 25 -60 0 -82 7 -82 26 0 9 -11 14 -30 14 -16 0 -30
3 -30 8 0 4 -19 7 -42 5 -24 -1 -35 0 -25 3 30 9 18 24 -19 24 -22 0 -43 7
-53 18 -27 29 -68 45 -103 39 -34 -5 -78 19 -78 43 0 16 -52 70 -68 70 -12 0
-52 -19 -62 -30 -7 -8 -23 -6 -41 5 -20 12 -65 85 -52 85 4 0 -14 11 -41 25
-38 19 -52 22 -58 13 -4 -7 -8 -16 -8 -20 0 -5 -6 -8 -14 -8 -8 0 -22 20 -32
44 -11 25 -27 47 -36 50 -10 2 -18 10 -18 18 0 8 -10 14 -22 15 -12 1 -26 9
-31 18 -5 10 -16 14 -27 10 -12 -4 -27 2 -39 14 -12 12 -28 21 -36 21 -17 0
-55 69 -55 100 0 29 -13 25 -28 -10 -8 -16 -18 -30 -24 -30 -20 0 -78 42 -78
56 0 8 -6 14 -14 14 -15 0 -25 27 -19 48 3 6 11 12 19 12 8 0 14 5 14 10 0 6
-13 10 -30 10 -16 0 -30 4 -30 10 0 17 -45 51 -61 47 -12 -3 -19 4 -23 25 -3
16 -15 42 -26 58 -11 15 -20 33 -20 39 0 8 -6 9 -18 2 -14 -7 -22 -5 -33 8
-28 35 -39 61 -39 95 0 26 -5 36 -20 41 -11 3 -20 15 -20 26 0 10 -4 19 -10
19 -5 0 -10 7 -10 16 0 9 -5 12 -12 8 -10 -6 -10 -4 0 8 11 14 10 17 -5 21
-12 3 -8 5 10 6 16 1 27 7 27 15 0 9 -10 12 -30 10 -16 -2 -30 1 -30 6 0 6
-14 10 -31 10 -25 0 -30 3 -25 16 7 18 -14 74 -26 74 -5 0 -8 11 -8 24 0 13
-6 29 -14 36 -8 6 -12 18 -9 26 3 8 -3 17 -15 21 -13 5 7 9 54 10 46 1 74 -2
74 -9z m-187 -45 c-7 -2 -19 -2 -25 0 -7 3 -2 5 12 5 14 0 19 -2 13 -5z m8075
-75 c-7 -19 -21 -12 -25 11 -3 20 -1 22 12 11 9 -7 14 -17 13 -22z m-18 -44
c0 -9 -5 -14 -12 -12 -18 6 -21 28 -4 28 9 0 16 -7 16 -16z m-53 0 c-3 -3 -12
-4 -19 -1 -8 3 -5 6 6 6 11 1 17 -2 13 -5z m-7889 -63 c3 -21 1 -23 -20 -18
-12 4 -28 7 -35 7 -6 0 -9 9 -6 21 8 30 57 23 61 -10z m7944 -70 c3 -20 0 -28
-10 -27 -21 4 -31 27 -19 47 14 23 24 16 29 -20z m-7896 -34 c4 -4 -4 -7 -19
-7 -14 0 -28 4 -31 8 -6 11 40 9 50 -1z m63 -77 c17 9 21 8 21 -5 0 -21 -56
-20 -64 1 -5 14 -4 15 8 5 11 -9 20 -10 35 -1z m7511 -271 c0 -5 -7 -9 -15 -9
-15 0 -20 12 -9 23 8 8 24 -1 24 -14z m-620 -468 c0 -6 -4 -13 -10 -16 -5 -3
-10 1 -10 9 0 9 5 16 10 16 6 0 10 -4 10 -9z m-260 -61 c0 -5 -4 -10 -10 -10
-5 0 -10 5 -10 10 0 6 5 10 10 10 6 0 10 -4 10 -10z m-4880 -260 c0 -5 -4 -10
-9 -10 -6 0 -13 5 -16 10 -3 6 1 10 9 10 9 0 16 -4 16 -10z"/>
<path d="M4050 7541 c-62 -6 -121 -29 -135 -51 -4 -6 -27 -21 -53 -35 -77 -39
-182 -174 -196 -250 -4 -22 -18 -51 -31 -65 -14 -14 -30 -53 -39 -90 -9 -36
-23 -90 -32 -120 -17 -62 -15 -106 17 -280 36 -201 103 -301 239 -360 70 -31
84 -33 219 -37 137 -5 254 7 266 28 3 4 29 15 58 25 28 9 63 25 77 34 14 9 41
25 60 34 52 24 229 202 273 274 69 112 70 228 3 431 -25 78 -41 110 -60 124
-14 10 -26 24 -26 31 0 7 -11 23 -24 35 -13 13 -36 42 -51 64 -29 47 -109 104
-230 165 -73 38 -88 42 -175 46 -52 2 -124 1 -160 -3z m221 -463 c44 -43 59
-77 59 -139 0 -65 -22 -116 -55 -129 -15 -6 -57 -10 -95 -10 -63 0 -72 3 -99
29 -41 40 -51 63 -51 116 0 56 17 92 65 134 30 26 43 31 89 31 46 0 58 -4 87
-32z"/>
<path d="M8660 7540 c-82 -5 -114 -10 -140 -27 -19 -11 -57 -28 -85 -37 -69
-22 -93 -41 -158 -116 -44 -52 -63 -86 -90 -160 -30 -84 -35 -111 -41 -232 -8
-162 3 -241 44 -313 39 -68 106 -142 177 -196 32 -24 62 -49 66 -56 18 -29
121 -86 208 -115 91 -31 99 -32 264 -33 l170 0 67 33 c37 17 71 32 76 32 5 0
29 22 54 48 36 39 47 58 52 98 4 27 17 69 29 94 16 36 21 70 25 171 4 119 3
128 -21 175 -15 28 -30 81 -36 123 -6 44 -18 85 -29 100 -10 14 -24 44 -31 66
-18 58 -30 82 -77 155 -46 70 -75 96 -169 152 -55 33 -67 36 -155 40 -52 2
-142 1 -200 -2z m187 -460 c65 -48 86 -144 49 -222 -21 -43 -56 -60 -128 -62
-79 -1 -103 9 -143 61 -48 63 -48 113 -1 175 48 62 73 77 132 77 41 1 58 -5
91 -29z"/>
<path d="M6334 6729 c-35 -10 -107 -78 -130 -122 -17 -32 -21 -100 -9 -165 9
-56 78 -125 142 -142 69 -20 88 -55 86 -160 -2 -122 -30 -178 -96 -194 -22 -5
-50 3 -120 37 -142 69 -145 70 -157 47 -5 -10 -10 -25 -10 -32 0 -16 85 -98
101 -98 7 0 37 -12 68 -26 38 -19 71 -26 107 -26 59 0 77 8 156 68 l56 44 65
-17 c62 -16 67 -16 143 4 76 21 173 74 202 111 21 28 15 61 -15 73 -36 14 -61
6 -101 -31 -24 -24 -47 -33 -94 -41 -34 -6 -65 -12 -70 -15 -16 -10 -74 25
-86 51 -16 36 -15 130 2 164 10 18 28 31 56 40 23 7 61 32 90 59 39 37 52 58
63 101 22 86 7 131 -70 205 -35 34 -73 64 -86 68 -33 9 -258 7 -293 -3z"/>
<path d="M9870 5050 c0 -13 18 -22 24 -11 3 5 -1 11 -9 15 -8 3 -15 1 -15 -4z"/>
</g>
</svg>
